<svg width="50" height="50" viewBox="0 0 50 50" fill="none" xmlns="http://www.w3.org/2000/svg">
<path d="M34.9345 23.6653C34.9345 30.8853 30.988 37.5546 25.1092 37.5546C19.2304 37.5546 15.2838 30.8853 15.2838 23.6653C15.2838 16.4453 19.2304 12.2271 25.1092 12.2271C30.988 12.2271 34.9345 16.4453 34.9345 23.6653ZM34.1157 23.6653C34.1157 17.1137 30.6646 13.0441 25.1092 13.0441C19.5538 13.0441 16.1026 17.1137 16.1026 23.6653C16.1026 27.203 16.9607 30.1222 18.2912 32.2995L18.4566 32.257C24.2241 30.7668 27.0366 27.359 28.1739 25.5379C27.2593 25.9162 26.217 26.1164 25.1092 26.1164C21.4918 26.1164 18.559 24.0068 18.559 20.3972C18.559 16.7877 21.4918 14.6781 25.1092 14.6781C28.7265 14.6781 31.6594 16.7877 31.6594 20.3972C31.6594 22.3066 30.8341 23.7903 29.5257 24.7699C29.1204 25.707 26.5306 30.9653 18.771 33.0152C20.488 35.4165 22.8166 36.7376 25.1092 36.7376C29.5363 36.7376 34.1157 31.8477 34.1157 23.6653ZM30.8406 20.3972C30.8406 17.0107 27.9618 15.4951 25.1092 15.4951C22.2566 15.4951 19.3777 17.0107 19.3777 20.3972C19.3777 23.7838 22.2566 25.2993 25.1092 25.2993C27.9618 25.2993 30.8406 23.7838 30.8406 20.3972ZM23.4716 18.7632C23.0197 18.7632 22.6528 19.1292 22.6528 19.5802C22.6528 20.0312 23.0197 20.3972 23.4716 20.3972C23.9236 20.3972 24.2904 20.0312 24.2904 19.5802C24.2904 19.1292 23.9236 18.7632 23.4716 18.7632ZM26.7467 18.7632C26.2948 18.7632 25.9279 19.1292 25.9279 19.5802C25.9279 20.0312 26.2948 20.3972 26.7467 20.3972C27.1987 20.3972 27.5655 20.0312 27.5655 19.5802C27.5655 19.1292 27.1987 18.7632 26.7467 18.7632Z" fill="#0B1719"/>
<path fill-rule="evenodd" clip-rule="evenodd" d="M19.8297 33.3598C21.3771 35.1759 23.2871 36.1143 25.1092 36.1143C29.0418 36.1143 33.4925 31.6761 33.4925 23.6653C33.4925 20.4933 32.6572 17.9952 31.2204 16.3009C29.7937 14.6185 27.7234 13.6673 25.1092 13.6673C22.495 13.6673 20.4247 14.6185 18.998 16.3009C17.5612 17.9952 16.7259 20.4933 16.7259 23.6653C16.7259 26.8871 17.4581 29.5523 18.5902 31.5765C22.6968 30.4484 25.1947 28.3175 26.6171 26.619C26.1293 26.699 25.6247 26.7396 25.1092 26.7396C23.1846 26.7396 21.3983 26.1787 20.0808 25.091C18.7512 23.9934 17.9357 22.3871 17.9357 20.3972C17.9357 18.4074 18.7512 16.801 20.0808 15.7035C21.3983 14.6158 23.1846 14.0549 25.1092 14.0549C27.0337 14.0549 28.82 14.6158 30.1376 15.7035C31.4671 16.801 32.2826 18.4074 32.2826 20.3972C32.2826 22.4427 31.4167 24.0725 30.0303 25.168C29.4405 26.4465 26.8311 31.1874 19.8297 33.3598ZM17.524 14.8271C19.3773 12.7201 22.0121 11.6038 25.1092 11.6038C28.2062 11.6038 30.841 12.7201 32.6944 14.8271C34.5404 16.9257 35.5577 19.9455 35.5577 23.6653C35.5577 27.3802 34.5441 30.9774 32.7442 33.6643C30.9416 36.3552 28.3117 38.1778 25.1092 38.1778C21.9066 38.1778 19.2767 36.3552 17.4741 33.6643C15.6743 30.9774 14.6606 27.3802 14.6606 23.6653C14.6606 19.9455 15.6779 16.9257 17.524 14.8271ZM21.5462 17.1759C20.6237 17.8635 20.001 18.9057 20.001 20.3972C20.001 21.8887 20.6237 22.931 21.5462 23.6185C22.49 24.322 23.7824 24.6761 25.1092 24.6761C26.4359 24.6761 27.7283 24.322 28.6722 23.6185C29.5946 22.931 30.2174 21.8887 30.2174 20.3972C30.2174 18.9057 29.5946 17.8635 28.6722 17.1759C27.7283 16.4724 26.4359 16.1184 25.1092 16.1184C23.7824 16.1184 22.49 16.4724 21.5462 17.1759ZM22.0296 19.5802C22.0296 18.7837 22.6767 18.14 23.4716 18.14C24.2665 18.14 24.9136 18.7837 24.9136 19.5802C24.9136 20.3767 24.2665 21.0205 23.4716 21.0205C22.6767 21.0205 22.0296 20.3767 22.0296 19.5802ZM23.4716 19.3865C23.3626 19.3865 23.2761 19.4747 23.2761 19.5802C23.2761 19.6857 23.3626 19.774 23.4716 19.774C23.5806 19.774 23.6671 19.6857 23.6671 19.5802C23.6671 19.4747 23.5806 19.3865 23.4716 19.3865ZM25.3047 19.5802C25.3047 18.7837 25.9518 18.14 26.7467 18.14C27.5416 18.14 28.1888 18.7838 28.1888 19.5802C28.1888 20.3767 27.5416 21.0205 26.7467 21.0205C25.9518 21.0205 25.3047 20.3767 25.3047 19.5802ZM26.7467 19.3865C26.6377 19.3865 26.5512 19.4747 26.5512 19.5802C26.5512 19.6857 26.6377 19.774 26.7467 19.774C26.8557 19.774 26.9423 19.6857 26.9423 19.5802C26.9423 19.4747 26.8557 19.3865 26.7467 19.3865Z" fill="black"/>
<path fill-rule="evenodd" clip-rule="evenodd" d="M27.1042 2.04856V8.28492H22.9393V2.04856H27.1042Z" fill="#020202"/>
<path d="M2.12597 22.8619V27.0267H4.26364C4.12829 25.6416 4.13204 24.2462 4.27484 22.8619H2.12597Z" fill="black"/>
<path fill-rule="evenodd" clip-rule="evenodd" d="M27.1042 2.04856V8.28492H22.9393V2.04856H27.1042Z" fill="#020202"/>
<path d="M2.12597 22.8619V27.0267H4.26364C4.12829 25.6416 4.13204 24.2462 4.27484 22.8619H2.12597Z" fill="black"/>
<path fill-rule="evenodd" clip-rule="evenodd" d="M27.1042 47.84V45.7286C25.7134 45.8698 24.3182 45.87 22.9393 45.733V47.84H27.1042Z" fill="#020202"/>
<path d="M27.1042 41.6036H22.9393V45.733C24.3182 45.87 25.7134 45.8698 27.1042 45.7286V41.6036Z" fill="black"/>
<path fill-rule="evenodd" clip-rule="evenodd" d="M12.5164 3.33995C17.6008 0.409589 23.5541 -0.638745 29.3337 0.378528C35.1133 1.3958 40.3509 4.41384 44.1292 8.90415C47.9075 13.3945 49.9857 19.0708 50 24.9392L50 24.9417V27.1248H45.8352V27.0267H47.9176V22.8619H45.7253C45.2985 18.7248 43.6406 14.7923 40.9424 11.5856C37.7935 7.84337 33.4285 5.32812 28.6118 4.48032C23.795 3.63252 18.8335 4.5062 14.5961 6.94839C10.3587 9.39057 7.11548 13.2456 5.43437 17.8384C4.83718 19.4699 4.45063 21.1576 4.27484 22.8619H2.12597V27.0267H4.26364C4.43073 28.7365 4.80979 30.4308 5.40091 32.0696C7.06041 36.6702 10.2855 40.5404 14.5113 43.0025C17.1112 44.5172 19.9879 45.4396 22.9393 45.733C24.3182 45.87 25.7134 45.8698 27.1042 45.7286C27.5753 45.6808 28.0459 45.6168 28.5152 45.5364C33.3359 44.7113 37.7127 42.2166 40.8791 38.4892L44.0533 41.1856C40.2539 45.6581 35.0022 48.6515 29.2179 49.6416C23.4336 50.6317 17.4853 49.5553 12.4147 46.6011C7.3441 43.6469 3.47436 39.003 1.48314 33.4827C-0.508084 27.9625 -0.493873 21.9176 1.52328 16.4068C3.54044 10.8959 7.43197 6.27032 12.5164 3.33995ZM4.26364 27.0267H8.36235V22.8619H4.27484C4.13204 24.2462 4.12829 25.6416 4.26364 27.0267ZM45.7253 22.8619H41.6812V27.0267H45.8352L45.8352 24.9493L45.8352 24.9477C45.8334 24.2484 45.7965 23.5523 45.7253 22.8619Z" fill="#020202"/>
<path d="M47.9176 27.0267V22.8619H45.7253C45.7965 23.5523 45.8334 24.2484 45.8352 24.9477L45.8352 24.9493L45.8352 27.0267H47.9176Z" fill="black"/>
</svg>
