<svg width="50" height="50" viewBox="0 0 50 50" fill="none" xmlns="http://www.w3.org/2000/svg">
<path fill-rule="evenodd" clip-rule="evenodd" d="M27.1042 2.04856V8.28492H22.9393V2.04856H27.1042Z" fill="#020202"/>
<path fill-rule="evenodd" clip-rule="evenodd" d="M27.1042 41.6036V47.84H22.9393V41.6036H27.1042Z" fill="#020202"/>
<path fill-rule="evenodd" clip-rule="evenodd" d="M47.9176 27.0267H41.6812V22.8619H47.9176V27.0267Z" fill="#020202"/>
<path fill-rule="evenodd" clip-rule="evenodd" d="M29.3337 0.378528C23.5541 -0.638745 17.6008 0.409589 12.5164 3.33995C7.43197 6.27032 3.54044 10.8959 1.52328 16.4068C-0.493873 21.9176 -0.508084 27.9625 1.48314 33.4827C3.47436 39.003 7.3441 43.6469 12.4147 46.6011C17.4853 49.5553 23.4336 50.6317 29.2179 49.6416C35.0022 48.6515 40.2539 45.6581 44.0533 41.1856L40.8791 38.4892C37.7127 42.2166 33.3359 44.7113 28.5152 45.5364C23.6945 46.3616 18.7372 45.4646 14.5113 43.0025C10.2855 40.5404 7.06041 36.6702 5.40091 32.0696C4.80979 30.4308 4.43073 28.7365 4.26364 27.0267H8.36235V22.8619H4.27484C4.45063 21.1576 4.83718 19.4699 5.43437 17.8384C7.11548 13.2456 10.3587 9.39057 14.5961 6.94839C18.8335 4.5062 23.795 3.63252 28.6117 4.48032C33.4285 5.32812 37.7935 7.84337 40.9424 11.5856C44.0909 15.3275 45.8229 20.0575 45.8351 24.9477L45.8352 24.9493L45.8351 27.1248H50V24.9417L50 24.9392C49.9857 19.0708 47.9075 13.3945 44.1292 8.90415C40.3508 4.41384 35.1133 1.3958 29.3337 0.378528ZM4.27484 22.8619H2.12597V27.0267H4.26364C4.12829 25.6416 4.13203 24.2462 4.27484 22.8619Z" fill="#020202"/>
<path d="M2.12597 22.8619V27.0267H4.26364C4.12829 25.6416 4.13203 24.2462 4.27484 22.8619H2.12597Z" fill="black"/>
<path fill-rule="evenodd" clip-rule="evenodd" d="M27.1042 2.04856V8.28492H22.9393V2.04856H27.1042Z" fill="#020202"/>
<path fill-rule="evenodd" clip-rule="evenodd" d="M27.1042 41.6036V47.84H22.9393V41.6036H27.1042Z" fill="#020202"/>
<path fill-rule="evenodd" clip-rule="evenodd" d="M47.9176 27.0267H41.6812V22.8619H47.9176V27.0267Z" fill="#020202"/>
<path fill-rule="evenodd" clip-rule="evenodd" d="M29.3337 0.378528C23.5541 -0.638745 17.6008 0.409589 12.5164 3.33995C7.43197 6.27032 3.54044 10.8959 1.52328 16.4068C-0.493873 21.9176 -0.508084 27.9625 1.48314 33.4827C3.47436 39.003 7.3441 43.6469 12.4147 46.6011C17.4853 49.5553 23.4336 50.6317 29.2179 49.6416C35.0022 48.6515 40.2539 45.6581 44.0533 41.1856L40.8791 38.4892C37.7127 42.2166 33.3359 44.7113 28.5152 45.5364C23.6945 46.3616 18.7372 45.4646 14.5113 43.0025C10.2855 40.5404 7.06041 36.6702 5.40091 32.0696C4.80979 30.4308 4.43073 28.7365 4.26364 27.0267H8.36235V22.8619H4.27484C4.45063 21.1576 4.83718 19.4699 5.43437 17.8384C7.11548 13.2456 10.3587 9.39057 14.5961 6.94839C18.8335 4.5062 23.795 3.63252 28.6117 4.48032C33.4285 5.32812 37.7935 7.84337 40.9424 11.5856C44.0909 15.3275 45.8229 20.0575 45.8351 24.9477L45.8352 24.9493L45.8351 27.1248H50V24.9417L50 24.9392C49.9857 19.0708 47.9075 13.3945 44.1292 8.90415C40.3508 4.41384 35.1133 1.3958 29.3337 0.378528ZM4.27484 22.8619H2.12597V27.0267H4.26364C4.12829 25.6416 4.13203 24.2462 4.27484 22.8619Z" fill="#020202"/>
<path d="M2.12597 22.8619V27.0267H4.26364C4.12829 25.6416 4.13203 24.2462 4.27484 22.8619H2.12597Z" fill="black"/>
<path d="M27.1222 30.1033H32.3158V33.1661H23.1575V16.8774H27.1222V30.1033Z" fill="black"/>
</svg>
