<svg width="50" height="50" viewBox="0 0 50 50" fill="none" xmlns="http://www.w3.org/2000/svg">
<path fill-rule="evenodd" clip-rule="evenodd" d="M27.1042 2.04856V8.28492H22.9393V2.04856H27.1042Z" fill="#020202"/>
<path fill-rule="evenodd" clip-rule="evenodd" d="M47.9176 27.0267H41.6812V22.8619H47.9176V27.0267Z" fill="#020202"/>
<path d="M2.12597 22.8619V27.0267H4.26364C4.12829 25.6416 4.13203 24.2462 4.27484 22.8619H2.12597Z" fill="black"/>
<path fill-rule="evenodd" clip-rule="evenodd" d="M27.1042 2.04856V8.28492H22.9393V2.04856H27.1042Z" fill="#020202"/>
<path fill-rule="evenodd" clip-rule="evenodd" d="M47.9176 27.0267H41.6812V22.8619H47.9176V27.0267Z" fill="#020202"/>
<path d="M2.12597 22.8619V27.0267H4.26364C4.12829 25.6416 4.13203 24.2462 4.27484 22.8619H2.12597Z" fill="black"/>
<path fill-rule="evenodd" clip-rule="evenodd" d="M12.5164 3.33995C17.6008 0.409589 23.5541 -0.638745 29.3337 0.378528C35.1133 1.3958 40.3508 4.41384 44.1292 8.90415C47.9075 13.3945 49.9857 19.0708 50 24.9392L50 24.9417V27.1248H45.8351L45.8352 24.9493L45.8351 24.9477C45.8229 20.0575 44.0909 15.3275 40.9424 11.5856C37.7935 7.84337 33.4285 5.32812 28.6117 4.48032C23.795 3.63252 18.8335 4.5062 14.5961 6.94839C10.3587 9.39057 7.11548 13.2456 5.43437 17.8384C4.83718 19.4699 4.45063 21.1576 4.27484 22.8619H2.12597V27.0267H4.26364C4.43073 28.7365 4.80979 30.4308 5.40091 32.0696C7.06041 36.6702 10.2855 40.5404 14.5113 43.0025C17.1112 44.5172 19.9879 45.4396 22.9393 45.733V47.84H27.1042V45.7286C27.5753 45.6808 28.0459 45.6168 28.5152 45.5364C33.3359 44.7113 37.7127 42.2166 40.8791 38.4892L44.0533 41.1856C40.2539 45.6581 35.0022 48.6515 29.2179 49.6416C23.4336 50.6317 17.4853 49.5553 12.4147 46.6011C7.3441 43.6469 3.47436 39.003 1.48314 33.4827C-0.508084 27.9625 -0.493873 21.9176 1.52328 16.4068C3.54044 10.8959 7.43197 6.27032 12.5164 3.33995ZM27.1042 45.7286V41.6036H22.9393V45.733C24.3182 45.87 25.7133 45.8698 27.1042 45.7286ZM4.26364 27.0267H8.36235V22.8619H4.27484C4.13203 24.2462 4.12829 25.6416 4.26364 27.0267Z" fill="#020202"/>
<path d="M22.9393 47.84H27.1042V45.7286C25.7133 45.8698 24.3182 45.87 22.9393 45.733V47.84Z" fill="black"/>
<path d="M25.2046 33.624C23.9755 33.624 22.874 33.4246 21.9002 33.0258C20.9265 32.627 20.1443 32.0368 19.5536 31.2551C18.979 30.4734 18.6757 29.5323 18.6437 28.4316H23.0017C23.0656 29.0537 23.2811 29.5323 23.6482 29.8673C24.0154 30.1863 24.4943 30.3458 25.0849 30.3458C25.6915 30.3458 26.1704 30.2102 26.5216 29.939C26.8728 29.6519 27.0484 29.2611 27.0484 28.7665C27.0484 28.3518 26.9047 28.0088 26.6174 27.7376C26.346 27.4664 26.0028 27.2431 25.5878 27.0676C25.1887 26.8922 24.614 26.6928 23.8637 26.4694C22.7782 26.1344 21.8923 25.7994 21.2058 25.4644C20.5194 25.1294 19.9288 24.6349 19.4339 23.9809C18.939 23.3268 18.6916 22.4734 18.6916 21.4205C18.6916 19.8572 19.2583 18.6369 20.3917 17.7595C21.5251 16.8662 23.0017 16.4195 24.8215 16.4195C26.6733 16.4195 28.1658 16.8662 29.2992 17.7595C30.4326 18.6369 31.0392 19.8652 31.119 21.4445H26.6892C26.6573 20.9021 26.4578 20.4794 26.0906 20.1763C25.7234 19.8572 25.2525 19.6977 24.6778 19.6977C24.183 19.6977 23.7839 19.8333 23.4806 20.1045C23.1773 20.3597 23.0256 20.7346 23.0256 21.2291C23.0256 21.7715 23.2811 22.1942 23.7919 22.4973C24.3027 22.8004 25.1009 23.1274 26.1864 23.4784C27.2719 23.8453 28.1499 24.1962 28.8203 24.5312C29.5067 24.8662 30.0974 25.3528 30.5922 25.9909C31.0871 26.6289 31.3345 27.4505 31.3345 28.4555C31.3345 29.4126 31.0871 30.282 30.5922 31.0637C30.1133 31.8453 29.411 32.4675 28.4851 32.9301C27.5592 33.3927 26.4657 33.624 25.2046 33.624Z" fill="black"/>
</svg>
