<svg width="48" height="50" viewBox="0 0 48 50" fill="none" xmlns="http://www.w3.org/2000/svg">
<path fill-rule="evenodd" clip-rule="evenodd" d="M34.5442 29.4205C35.214 29.4205 35.7569 29.9632 35.7569 30.6328V45.8623L41.2587 40.3656C41.7324 39.8924 42.5002 39.8926 42.9737 40.3662C43.4471 40.8398 43.4468 41.6074 42.9731 42.0806L35.4014 49.6452C34.9279 50.1183 34.1606 50.1183 33.687 49.6452L26.1154 42.0806C25.6417 41.6074 25.6414 40.8398 26.1148 40.3662C26.5882 39.8926 27.356 39.8924 27.8298 40.3656L33.3316 45.8623V30.6328C33.3316 29.9632 33.8745 29.4205 34.5442 29.4205Z" fill="black"/>
<path fill-rule="evenodd" clip-rule="evenodd" d="M40.2393 34.518C42.3348 34.1292 44.5664 32.3684 45.4315 30.4243C45.5099 30.2499 47.3214 26.0896 47.3214 17.741C47.3214 9.39237 45.5098 5.23063 45.4329 5.05618C44.5663 3.11206 42.3348 1.35275 40.2378 0.962448C40.0248 0.92401 34.9036 0 23.6452 0C12.4178 0 7.29216 0.92401 7.07921 0.963927C4.98369 1.35275 2.75064 3.11206 1.88404 5.05766C1.80714 5.23063 0 9.39237 0 17.741C0 26.0896 1.80714 30.2498 1.88404 30.4228C2.75064 32.3684 4.98369 34.1292 7.07921 34.5195C7.29216 34.558 17.3305 36.1029 28.9099 35.482V32.5251C18.1291 33.1165 7.66631 31.6203 7.61899 31.6115C6.49655 31.403 5.05172 30.2646 4.5918 29.2283C4.57405 29.1898 2.95916 25.3844 2.95916 17.741C2.95916 10.0961 4.57406 6.29066 4.58884 6.25961C5.05172 5.21733 6.49655 4.07895 7.61751 3.87049C7.66631 3.86162 12.7387 2.95683 23.6748 2.95683C34.5827 2.95683 39.6507 3.86162 39.698 3.87049C40.819 4.07895 42.2653 5.21733 42.7267 6.2537C42.7429 6.29066 44.3608 10.0976 44.3608 17.741C44.3608 25.3844 42.7429 29.1898 42.7282 29.2224C42.2653 30.2646 40.8204 31.403 39.6995 31.6115L40.2393 34.518Z" fill="black"/>
<path d="M20.1896 15.75C21.0064 15.75 21.6685 15.0881 21.6685 14.2716C21.6685 13.4551 21.0064 12.7932 20.1896 12.7932C19.3729 12.7932 18.7108 13.4551 18.7108 14.2716C18.7108 15.0881 19.3729 15.75 20.1896 15.75Z" fill="black"/>
<path fill-rule="evenodd" clip-rule="evenodd" d="M22.6598 7.86517H24.6207C25.9872 7.86516 27.0739 7.86516 27.9502 7.93791C28.8476 8.01241 29.6123 8.16829 30.3106 8.53097C31.3911 9.09203 32.272 9.9727 32.8332 11.0528C33.196 11.751 33.3519 12.5154 33.4264 13.4126C33.4992 14.2886 33.4992 15.375 33.4992 16.741V18.7015C33.4992 19.3824 33.4992 19.9941 33.4902 20.5446C33.504 20.6463 33.502 20.7497 33.484 20.8506C33.4737 21.2817 33.4561 21.6733 33.4264 22.03C33.3519 22.9272 33.196 23.6916 32.8332 24.3897C32.272 25.4698 31.3911 26.3505 30.3106 26.9116C29.6123 27.2743 28.8476 27.4301 27.9502 27.5046C27.0739 27.5774 25.9872 27.5774 24.6208 27.5774H22.6598C21.2934 27.5774 20.2066 27.5774 19.3303 27.5046C18.4329 27.4301 17.6682 27.2743 16.9698 26.9116C16.1857 26.5043 15.5066 25.9287 14.9786 25.2307C14.9686 25.218 14.9589 25.2052 14.9496 25.1921C14.7618 24.9397 14.5937 24.6715 14.4473 24.3897C14.0845 23.6916 13.9286 22.9272 13.8541 22.03C13.7813 21.154 13.7813 20.0675 13.7813 18.7015V16.7411C13.7813 15.375 13.7813 14.2886 13.8541 13.4126C13.9286 12.5154 14.0845 11.751 14.4473 11.0528C15.0085 9.9727 15.8895 9.09203 16.9698 8.53097C17.6682 8.16829 18.4329 8.01241 19.3303 7.93791C20.2066 7.86516 21.2933 7.86516 22.6598 7.86517ZM31.5274 16.7849V18.2257L30.16 16.7997C29.3809 15.9873 28.0807 15.9907 27.306 16.8073L22.7048 21.6567L21.1907 19.8264C20.3802 18.8467 18.8676 18.879 18.0996 19.8924L15.9408 22.7408C15.888 22.4978 15.8478 22.2125 15.8191 21.8668C15.7539 21.0819 15.7531 20.0774 15.7531 18.6576V16.7849C15.7531 15.3652 15.7539 14.3606 15.8191 13.5757C15.8833 12.8026 16.0049 12.3314 16.1971 11.9615C16.5713 11.2414 17.1585 10.6543 17.8788 10.2803C18.2488 10.0881 18.7202 9.96657 19.4935 9.90237C20.2786 9.83718 21.2835 9.83639 22.7037 9.83639H24.5769C25.997 9.83639 27.0019 9.83718 27.787 9.90237C28.5604 9.96657 29.0317 10.0881 29.4017 10.2803C30.122 10.6543 30.7093 11.2414 31.0835 11.9615C31.2756 12.3314 31.3972 12.8026 31.4615 13.5757C31.5266 14.3606 31.5274 15.3652 31.5274 16.7849ZM17.8788 25.1623C17.5691 25.0015 17.284 24.8012 17.0298 24.568L19.6712 21.0828L21.1854 22.9131C21.9395 23.8246 23.3212 23.8715 24.1355 23.0133L28.7366 18.1638L31.5059 21.0518C31.4962 21.3495 31.482 21.6191 31.4615 21.8668C31.3972 22.64 31.2756 23.1112 31.0835 23.4811C30.7093 24.2012 30.122 24.7883 29.4017 25.1623C29.0317 25.3544 28.5604 25.476 27.787 25.5402C27.0019 25.6054 25.997 25.6062 24.5769 25.6062H22.7037C21.2835 25.6062 20.2786 25.6054 19.4935 25.5402C18.7202 25.476 18.2488 25.3544 17.8788 25.1623Z" fill="black"/>
</svg>
