<svg width="48" height="50" viewBox="0 0 48 50" fill="none" xmlns="http://www.w3.org/2000/svg">
<path fill-rule="evenodd" clip-rule="evenodd" d="M34.824 29.4205C35.493 29.4205 36.0352 29.9632 36.0352 30.6328V45.8623L41.5304 40.3656C42.0036 39.8924 42.7705 39.8926 43.2433 40.3662C43.7162 40.8398 43.7159 41.6074 43.2428 42.0806L35.6802 49.6452C35.2073 50.1183 34.4408 50.1183 33.9679 49.6452L26.4053 42.0806C25.9322 41.6074 25.9319 40.8398 26.4048 40.3662C26.8776 39.8926 27.6445 39.8924 28.1177 40.3656L33.6129 45.8623V30.6328C33.6129 29.9632 34.1551 29.4205 34.824 29.4205Z" fill="black"/>
<path fill-rule="evenodd" clip-rule="evenodd" d="M40.5122 34.518C42.6052 34.1292 44.8341 32.3684 45.6982 30.4243C45.7765 30.2499 47.5859 26.0896 47.5859 17.741C47.5859 9.39237 45.7764 5.23063 45.6996 5.05618C44.8341 3.11206 42.6052 1.35275 40.5107 0.962448C40.298 0.92401 35.183 0 23.9381 0C12.7243 0 7.60479 0.92401 7.3921 0.963927C5.2991 1.35275 3.06874 3.11206 2.20319 5.05766C2.12638 5.23063 0.321411 9.39237 0.321411 17.741C0.321411 26.0896 2.12638 30.2498 2.20319 30.4228C3.06874 32.3684 5.2991 34.1292 7.3921 34.5195C7.60479 34.558 17.6311 36.1029 29.1965 35.482V32.5251C18.4287 33.1165 7.97849 31.6203 7.93122 31.6115C6.81014 31.403 5.36705 30.2646 4.90768 29.2283C4.88996 29.1898 3.27701 25.3844 3.27701 17.741C3.27701 10.0961 4.88996 6.29066 4.90473 6.25961C5.36705 5.21733 6.81013 4.07895 7.92975 3.87049C7.97849 3.86162 13.0448 2.95683 23.9677 2.95683C34.8625 2.95683 39.9243 3.86162 39.9716 3.87049C41.0912 4.07895 42.5358 5.21733 42.9966 6.2537C43.0129 6.29066 44.6288 10.0976 44.6288 17.741C44.6288 25.3844 43.0129 29.1898 42.9981 29.2224C42.5358 30.2646 41.0927 31.403 39.9731 31.6115L40.5122 34.518Z" fill="black"/>
<path fill-rule="evenodd" clip-rule="evenodd" d="M23.9544 8.0071C22.1189 8.0071 20.631 9.49242 20.631 11.3247C20.631 13.1569 22.1189 14.6422 23.9544 14.6422C25.7898 14.6422 27.2778 13.1569 27.2778 11.3247C27.2778 9.49243 25.7898 8.0071 23.9544 8.0071ZM18.4154 11.3247C18.4154 8.27093 20.8953 5.79539 23.9544 5.79539C27.0134 5.79539 29.4933 8.27092 29.4933 11.3247C29.4933 14.3784 27.0134 16.8539 23.9544 16.8539C20.8953 16.8539 18.4154 14.3784 18.4154 11.3247ZM23.9544 20.1715C20.2835 20.1715 17.3076 23.1421 17.3076 26.8066C17.3076 27.4174 16.8116 27.9125 16.1998 27.9125C15.588 27.9125 15.092 27.4174 15.092 26.8066C15.092 21.9206 19.0598 17.9598 23.9544 17.9598C28.8489 17.9598 32.8167 21.8024 32.8167 26.6884C32.8167 27.2991 32.3207 27.7942 31.7089 27.7942C31.0971 27.7942 30.6011 27.2991 30.6011 26.6884C30.6011 23.0239 27.6253 20.1715 23.9544 20.1715Z" fill="black"/>
</svg>
